<?xml version="1.0" encoding="utf-8"?>
<!-- Generator: Adobe Illustrator 26.0.1, SVG Export Plug-In . SVG Version: 6.00 Build 0)  -->
<svg version="1.1" id="Capa_1" xmlns="http://www.w3.org/2000/svg" xmlns:xlink="http://www.w3.org/1999/xlink" x="0px" y="0px"
	 viewBox="0 0 16.9 14" style="enable-background:new 0 0 16.9 14;" xml:space="preserve">
<style type="text/css">
	.st0{fill:url(#SVGID_1_);}
	.st1{fill:url(#SVGID_00000132775775617286455090000008038493840860046214_);}
	.st2{fill:url(#SVGID_00000061446294827179811760000016617740572665724580_);}
	.st3{fill:url(#SVGID_00000152976051633732415930000001111225321951792541_);}
	.st4{fill:#1C213F;}
	.st5{fill:#51B4B1;}
</style>
<g id="Capa_2_00000111188561833833827720000016636140333208379325_">
	<g id="Capa_1-2">
		<g id="Marca_3C_TECH_4-3">
			<g id="Isologo_3CTech">
				
					<linearGradient id="SVGID_1_" gradientUnits="userSpaceOnUse" x1="2.0801" y1="11.6811" x2="6.3601" y2="11.4711" gradientTransform="matrix(1 0 0 -1 0 16)">
					<stop  offset="0" style="stop-color:#0D6FA9"/>
					<stop  offset="1" style="stop-color:#1C213F"/>
				</linearGradient>
				<polygon class="st0" points="4,6 2,5 3,3 8,3 8,6 				"/>
				
					<linearGradient id="SVGID_00000158731656658948100670000013461877909654877340_" gradientUnits="userSpaceOnUse" x1="14.92" y1="10.9389" x2="11.06" y2="11.0189" gradientTransform="matrix(1 0 0 -1 0 16)">
					<stop  offset="0" style="stop-color:#0D6FA9"/>
					<stop  offset="1" style="stop-color:#1C213F"/>
				</linearGradient>
				<polygon style="fill:url(#SVGID_00000158731656658948100670000013461877909654877340_);" points="11,7 14.9,5 13.9,3 11,3 				
					"/>
				
					<linearGradient id="SVGID_00000002386036414851692460000002691547015860482489_" gradientUnits="userSpaceOnUse" x1="1.8797" y1="7.0279" x2="6.6297" y2="6.4279" gradientTransform="matrix(1 0 0 -1 0 16)">
					<stop  offset="0" style="stop-color:#0D6FA9"/>
					<stop  offset="1" style="stop-color:#1C213F"/>
				</linearGradient>
				<polygon style="fill:url(#SVGID_00000002386036414851692460000002691547015860482489_);" points="4,8 2,8 3,11 7,11 9,8 				"/>
				
					<linearGradient id="SVGID_00000132784093399306959800000004570562967706817196_" gradientUnits="userSpaceOnUse" x1="15.4399" y1="6.4075" x2="11.0699" y2="6.4975" gradientTransform="matrix(1 0 0 -1 0 16)">
					<stop  offset="0" style="stop-color:#0D6FA9"/>
					<stop  offset="1" style="stop-color:#1C213F"/>
				</linearGradient>
				<polygon style="fill:url(#SVGID_00000132784093399306959800000004570562967706817196_);" points="12,8 15.9,9 13.9,11 9,11 				
					"/>
				<polygon class="st4" points="13.9,11 10,11 10,3 13.9,3 12,5 12,9 				"/>
				<polygon class="st4" points="6,11 2,11 5,9 5,5 1,3 6,2 8.5,7.2 				"/>
				<polygon class="st5" points="16,9 16.9,10.9 13,14 9,11 5,14 0,10 2,8 5,11 7,9 7,8 4,8 4,6 7,6 7,5 5,3 2,5 0,3 5,0 9,3 13,0 
					16.9,2.9 14.9,5 13,3 11,5 11,9 13,11 				"/>
			</g>
		</g>
	</g>
</g>
</svg>
