<svg width="499" height="184" xmlns="http://www.w3.org/2000/svg" xmlns:xlink="http://www.w3.org/1999/xlink" overflow="hidden"><defs><clipPath id="clip0"><rect x="216" y="460" width="499" height="184"/></clipPath><clipPath id="clip1"><rect x="433" y="505" width="281" height="67"/></clipPath><radialGradient cx="-0.01" cy="2.52" r="44.73" gradientUnits="userSpaceOnUse" spreadMethod="pad" id="fill2" gradientTransform="scale(4.2351 4.2351)"><stop offset="0" stop-color="#3B81A1"/><stop offset="0.21" stop-color="#0D6FA9"/><stop offset="1" stop-color="#1C213F"/></radialGradient><radialGradient cx="-0.01" cy="2.52" r="44.73" gradientUnits="userSpaceOnUse" spreadMethod="pad" id="fill3" gradientTransform="scale(4.2351 4.2351)"><stop offset="0" stop-color="#3B81A1"/><stop offset="0.21" stop-color="#0D6FA9"/><stop offset="1" stop-color="#1C213F"/></radialGradient><radialGradient cx="0.33" cy="2.52" r="44.73" gradientUnits="userSpaceOnUse" spreadMethod="pad" id="fill4" gradientTransform="scale(4.2351 4.2351)"><stop offset="0" stop-color="#3B81A1"/><stop offset="0.21" stop-color="#0D6FA9"/><stop offset="1" stop-color="#1C213F"/></radialGradient><radialGradient cx="0.33" cy="2.52" r="44.73" gradientUnits="userSpaceOnUse" spreadMethod="pad" id="fill5" gradientTransform="scale(4.2351 4.2351)"><stop offset="0" stop-color="#3B81A1"/><stop offset="0.21" stop-color="#0D6FA9"/><stop offset="1" stop-color="#1C213F"/></radialGradient><radialGradient cx="0.33" cy="2.52" r="44.73" gradientUnits="userSpaceOnUse" spreadMethod="pad" id="fill6" gradientTransform="scale(4.2351 4.2351)"><stop offset="0" stop-color="#3B81A1"/><stop offset="0.21" stop-color="#0D6FA9"/><stop offset="1" stop-color="#1C213F"/></radialGradient><radialGradient cx="0.33" cy="2.52" r="44.73" gradientUnits="userSpaceOnUse" spreadMethod="pad" id="fill7" gradientTransform="scale(4.2351 4.2351)"><stop offset="0" stop-color="#3B81A1"/><stop offset="0.21" stop-color="#0D6FA9"/><stop offset="1" stop-color="#1C213F"/></radialGradient><clipPath id="clip8"><rect x="216" y="460" width="204" height="184"/></clipPath><linearGradient x1="55.228" y1="121.101" x2="99.3532" y2="121.101" gradientUnits="userSpaceOnUse" spreadMethod="pad" id="fill9"><stop offset="0" stop-color="#0D6FA9"/><stop offset="0.45" stop-color="#154772"/><stop offset="0.81" stop-color="#1A2B4D"/><stop offset="1" stop-color="#1C213F"/></linearGradient><linearGradient x1="113.318" y1="111.715" x2="146.512" y2="145.253" gradientUnits="userSpaceOnUse" spreadMethod="pad" id="fill10"><stop offset="0" stop-color="#1C213F"/><stop offset="0.09" stop-color="#193155"/><stop offset="0.24" stop-color="#154773"/><stop offset="0.41" stop-color="#11598B"/><stop offset="0.58" stop-color="#0F659C"/><stop offset="0.77" stop-color="#0D6DA6"/><stop offset="1" stop-color="#0D6FA9"/></linearGradient><linearGradient x1="18.1995" y1="120.758" x2="94.9464" y2="120.758" gradientUnits="userSpaceOnUse" spreadMethod="pad" id="fill11"><stop offset="0" stop-color="#0D6FA9"/><stop offset="1" stop-color="#1C213F"/></linearGradient><linearGradient x1="107.881" y1="120.758" x2="184.685" y2="120.758" gradientUnits="userSpaceOnUse" spreadMethod="pad" id="fill12"><stop offset="0" stop-color="#1C213F"/><stop offset="1" stop-color="#0D6FA9"/></linearGradient><linearGradient x1="18.1995" y1="62.7826" x2="94.9464" y2="62.7826" gradientUnits="userSpaceOnUse" spreadMethod="pad" id="fill13"><stop offset="0" stop-color="#0D6FA9"/><stop offset="1" stop-color="#1C213F"/></linearGradient><linearGradient x1="103.474" y1="62.4964" x2="147.599" y2="62.4964" gradientUnits="userSpaceOnUse" spreadMethod="pad" id="fill14"><stop offset="0" stop-color="#1C213F"/><stop offset="0.34" stop-color="#1C2341"/><stop offset="0.52" stop-color="#1B2849"/><stop offset="0.65" stop-color="#193256"/><stop offset="0.77" stop-color="#16406A"/><stop offset="0.88" stop-color="#125282"/><stop offset="0.98" stop-color="#0E68A0"/><stop offset="1" stop-color="#0D6FA9"/></linearGradient><linearGradient x1="107.881" y1="62.7826" x2="184.685" y2="62.7826" gradientUnits="userSpaceOnUse" spreadMethod="pad" id="fill15"><stop offset="0" stop-color="#1C213F"/><stop offset="1" stop-color="#0D6FA9"/></linearGradient><linearGradient x1="55.228" y1="62.4964" x2="99.3532" y2="62.4964" gradientUnits="userSpaceOnUse" spreadMethod="pad" id="fill16"><stop offset="0" stop-color="#0D6FA9"/><stop offset="0.02" stop-color="#0E68A0"/><stop offset="0.12" stop-color="#125282"/><stop offset="0.23" stop-color="#16406A"/><stop offset="0.35" stop-color="#193256"/><stop offset="0.48" stop-color="#1B2849"/><stop offset="0.66" stop-color="#1C2341"/><stop offset="1" stop-color="#1C213F"/></linearGradient><radialGradient cx="8.66" cy="8.74" r="29.65" gradientUnits="userSpaceOnUse" spreadMethod="pad" id="fill17" gradientTransform="scale(5.72311 5.72311)"><stop offset="0" stop-color="#7AC3A9"/><stop offset="0.52" stop-color="#51B4B1"/><stop offset="1" stop-color="#3B81A1"/></radialGradient></defs><g clip-path="url(#clip0)" transform="translate(-216 -460)"><g clip-path="url(#clip1)"><path d="M32.1444 66.11 10.9689 66.11 0 55.0563 0 45.7391 13.2559 45.7391 13.2559 49.6354 16.4322 52.8964 26.6388 52.8964 29.6457 49.6354 29.6457 42.6475 26.7235 39.6406 13.0865 39.6406 13.0865 26.4694 26.8506 26.4694 29.6457 23.4625 29.6457 16.4322 26.5117 13.2559 16.4322 13.2559 13.2559 16.4322 13.2559 20.6673 0 20.6673 0 11.0113 10.9266 0 32.1021 0 42.944 11.0113 42.944 28.9681 38.7088 33.2032 42.944 37.4383 42.944 55.0563Z" fill="url(#fill2)" transform="matrix(1 0 0 1.0025 433.393 505.154)"/><path d="M90.8006 55.734 80.467 66.11 61.6631 66.11 51.3295 55.734 51.3295 10.3337 61.6631 0 80.467 0 90.9277 10.3337 90.9277 20.8791 78.2224 20.8791 78.2224 16.0934 74.5802 12.7053 67.4229 12.7053 63.823 16.2628 63.823 50.1436 67.4229 53.7435 74.5802 53.7435 78.2647 50.1436 78.2647 45.2309 90.97 45.2309Z" fill="url(#fill3)" transform="matrix(1 0 0 1.0025 433.393 505.154)"/><path d="M136.328 12.7053 124.724 12.7053 124.724 66.11 112.23 66.11 112.23 12.7053 100.541 12.7053 100.541 0 136.328 0Z" fill="url(#fill4)" transform="matrix(1 0 0 1.0025 433.393 505.154)"/><path d="M184.058 66.11 144.671 66.11 144.671 0 184.058 0 184.058 12.7053 157.207 12.7053 157.207 26.8082 169.912 26.8082 169.912 39.3018 157.207 39.3018 157.207 53.5741 184.058 53.5741Z" fill="url(#fill5)" transform="matrix(1 0 0 1.0025 433.393 505.154)"/><path d="M231.872 55.734 221.454 66.11 202.777 66.11 192.443 55.734 192.443 10.3337 202.777 0 221.454 0 231.872 10.3337 231.872 20.8791 219.167 20.8791 219.167 16.0934 215.694 12.7053 208.537 12.7053 204.937 16.2628 204.937 50.1436 208.537 53.7435 215.694 53.7435 219.378 50.1436 219.378 45.2309 232.084 45.2309Z" fill="url(#fill6)" transform="matrix(1 0 0 1.0025 433.393 505.154)"/><path d="M279.517 66.11 267.193 66.11 267.193 39.3018 252.751 39.3018 252.751 66.11 240.046 66.11 240.046 0 252.751 0 252.751 26.8082 267.193 26.8082 267.193 0 279.517 0Z" fill="url(#fill7)" transform="matrix(1 0 0 1.0025 433.393 505.154)"/></g><g clip-path="url(#clip8)"><path d="M184.628 116.866 155.268 107.995 116.065 96.2055 116.065 87.3919 184.742 66.6743 166.714 52.4237 184.685 66.6743 200.996 44.1824 147.599 2.23201 101.414 36.5707 55.228 2.00309 2.34648 44.4114 18.1423 66.6743 35.9984 52.5382 18.1995 66.6743 52.8816 77.1476 52.252 77.1476 52.252 106.393 52.996 106.393 49.5049 107.423 18.1995 116.866 18.1995 116.866 3.31941 139.758 55.2853 181.48 101.471 147.141 147.656 181.48 201.282 140.216 184.742 117.324ZM86.8196 62.2675 86.8196 62.2675 55.228 37.3147 55.228 37.3147ZM147.599 37.3147 147.599 37.3147 117.953 60.7795 116.065 62.2675 116.065 62.2675Z" fill="#1C213F" transform="matrix(1 0 0 1.0025 216.774 460)"/><path d="M55.228 146.226 94.9464 99.4105 99.3532 95.9194 86.8196 121.273 55.228 146.226Z" fill="url(#fill9)" transform="matrix(1 0 0 1.0025 216.774 460)"/><path d="M116.008 121.273 103.474 95.9194 107.881 99.4105 147.599 146.226 116.008 121.273Z" fill="url(#fill10)" transform="matrix(1 0 0 1.0025 216.774 460)"/><path d="M18.1423 116.866 89.7384 95.2898 94.9464 99.4105 55.228 146.226 18.1423 116.866Z" fill="url(#fill11)" transform="matrix(1 0 0 1.0025 216.774 460)"/><path d="M147.599 146.226 107.881 99.4105 113.089 95.2898 184.685 116.866 147.599 146.226Z" fill="url(#fill12)" transform="matrix(1 0 0 1.0025 216.774 460)"/><path d="M55.228 37.3147 94.9464 84.1298 89.7384 88.2504 18.1423 66.6743 55.228 37.3147Z" fill="url(#fill13)" transform="matrix(1 0 0 1.0025 216.774 460)"/><path d="M147.599 37.3147 107.881 84.1298 103.474 87.6209 116.008 62.3247 147.599 37.3147Z" fill="url(#fill14)" transform="matrix(1 0 0 1.0025 216.774 460)"/><path d="M184.685 66.6743 113.089 88.2504 107.881 84.1298 147.599 37.3147 184.685 66.6743Z" fill="url(#fill15)" transform="matrix(1 0 0 1.0025 216.774 460)"/><path d="M86.8196 62.3247 99.3532 87.6209 94.9464 84.1298 55.228 37.3147 86.8196 62.3247Z" fill="url(#fill16)" transform="matrix(1 0 0 1.0025 216.774 460)"/><path d="M147.599 146.226 116.065 121.273 116.065 62.2675 147.599 37.3147 184.685 66.6743 202.827 43.7246 147.599 0 101.414 36.5707 55.228 0 0 43.7246 18.1423 66.6743 55.228 37.3147 86.8196 62.2675 86.8196 77.1476 52.252 77.1476 52.252 106.393 86.8196 106.393 86.8196 121.273 55.228 146.226 18.1423 116.866 0 139.758 55.228 183.54 101.414 146.97 147.599 183.54 202.827 139.758 184.685 116.866 147.599 146.226Z" fill="url(#fill17)" transform="matrix(1 0 0 1.0025 216.774 460)"/></g><path d="M216.505 121.788 221.198 121.788 221.198 139.415 223.373 139.415 223.373 121.788 228.123 121.788 228.123 119.613 216.505 119.613 216.505 121.788Z" fill="#1D426C" transform="matrix(1 0 0 1.0025 216.774 460)"/><path d="M229.726 139.415 240.199 139.415 240.199 137.24 231.901 137.24 231.901 130.601 240.199 130.601 240.199 128.427 231.901 128.427 231.901 121.788 240.199 121.788 240.199 119.613 229.726 119.613 229.726 139.415Z" fill="#1D426C" transform="matrix(1 0 0 1.0025 216.774 460)"/><path d="M252.504 121.616C254.434 121.583 256.302 122.301 257.712 123.619L258.112 123.619 259.772 122.188 259.314 121.731C255.218 117.874 248.771 118.069 244.914 122.166 243.116 124.075 242.124 126.605 242.145 129.228 242.121 131.935 243.195 134.536 245.121 136.439 248.987 140.22 255.126 140.346 259.143 136.725L259.6 136.325 257.941 134.837 257.54 135.18C256.114 136.473 254.257 137.188 252.332 137.183 250.178 137.246 248.099 136.394 246.609 134.837 243.448 131.831 243.323 126.832 246.329 123.671 246.42 123.575 246.513 123.481 246.609 123.39 248.233 121.989 250.376 121.344 252.504 121.616Z" fill="#1D426C" transform="matrix(1 0 0 1.0025 216.774 460)"/><path d="M271.848 128.427 263.435 128.427 263.435 119.613 261.203 119.613 261.203 139.415 263.435 139.415 263.435 130.601 271.848 130.601 271.848 139.415 274.08 139.415 274.08 119.613 271.848 119.613 271.848 128.427Z" fill="#1D426C" transform="matrix(1 0 0 1.0025 216.774 460)"/><path d="M299.777 130.83 299.777 130.83 297.945 130.258 297.945 130.258C297.743 131.436 297.356 132.576 296.801 133.635L291.879 128.656C293.028 128.02 294.071 127.209 294.969 126.252 296.415 124.728 296.415 122.339 294.969 120.815 294.023 120.084 292.844 119.718 291.65 119.785 290.372 119.76 289.123 120.162 288.102 120.929 287.227 121.689 286.743 122.805 286.785 123.963 286.786 124.699 286.963 125.425 287.3 126.08 287.782 126.923 288.379 127.693 289.074 128.369 287.743 129.075 286.542 130.003 285.526 131.117 284.809 132.008 284.424 133.121 284.439 134.264 284.441 135.184 284.72 136.081 285.24 136.84 285.834 137.608 286.625 138.201 287.529 138.557 288.585 138.978 289.712 139.192 290.849 139.186 293.208 139.267 295.492 138.353 297.144 136.668L299.662 139.243 299.662 139.243 300.864 137.87 300.864 137.87 298.174 135.123C298.98 133.809 299.524 132.351 299.777 130.83ZM287.243 131.632C288.083 130.743 289.07 130.007 290.162 129.457L295.885 135.18C294.614 136.492 292.845 137.2 291.02 137.126 289.88 137.189 288.751 136.866 287.815 136.21 287.063 135.696 286.631 134.831 286.671 133.921 286.569 133.113 286.773 132.297 287.243 131.632ZM289.418 121.96C289.994 121.479 290.73 121.234 291.478 121.273 292.182 121.236 292.875 121.46 293.424 121.902 293.877 122.286 294.129 122.855 294.111 123.448 294.075 124.107 293.812 124.734 293.367 125.222 292.555 125.964 291.651 126.599 290.677 127.11 290.076 126.541 289.539 125.907 289.074 125.222 288.808 124.751 288.67 124.218 288.674 123.676 288.694 123.096 288.966 122.553 289.418 122.188Z" fill="#1D426C" transform="matrix(1 0 0 1.0025 216.774 460)"/><path d="M319.922 121.616C321.871 121.574 323.759 122.293 325.187 123.619L325.588 123.619 327.248 122.188 326.79 121.731C324.927 119.999 322.465 119.055 319.922 119.098 314.34 119.129 309.824 123.646 309.792 129.228 309.748 134.854 314.273 139.451 319.899 139.494 322.522 139.515 325.052 138.523 326.961 136.725L327.419 136.325 325.76 134.837 325.359 135.18C322.221 137.978 317.44 137.827 314.485 134.837 311.324 131.74 311.273 126.667 314.369 123.506 314.408 123.467 314.446 123.429 314.485 123.39 316.004 122.126 317.949 121.49 319.922 121.616Z" fill="#1D426C" transform="matrix(1 0 0 1.0025 216.774 460)"/><path d="M338.408 119.327C332.845 119.295 328.309 123.779 328.277 129.342 328.277 129.399 328.277 129.457 328.278 129.514 328.309 135.096 332.826 139.612 338.408 139.644 344.012 139.644 348.563 135.118 348.595 129.514 348.595 123.888 344.034 119.327 338.408 119.327ZM338.408 137.469C334.027 137.438 330.483 133.895 330.453 129.514 330.39 127.36 331.242 125.281 332.799 123.791 335.851 120.63 340.887 120.542 344.048 123.593 344.115 123.658 344.181 123.724 344.245 123.791 345.803 125.281 346.655 127.36 346.592 129.514 346.67 131.671 345.815 133.756 344.245 135.237 342.689 136.741 340.566 137.511 338.408 137.355Z" fill="#1D426C" transform="matrix(1 0 0 1.0025 216.774 460)"/><path d="M364.276 135.809 352.887 119.842 352.715 119.613 350.541 119.613 350.541 139.415 352.715 139.415 352.715 123.676 363.99 139.415 366.508 139.415 366.508 119.613 364.276 119.613 364.276 135.809Z" fill="#1D426C" transform="matrix(1 0 0 1.0025 216.774 460)"/><path d="M374.749 126.881C374.015 126.523 373.323 126.081 372.689 125.565 372.259 125.123 372.031 124.522 372.06 123.905 372.038 123.279 372.289 122.674 372.746 122.246 373.633 121.345 375.083 121.334 375.984 122.221 375.992 122.229 376.001 122.237 376.009 122.246 376.267 122.457 376.464 122.734 376.581 123.047L376.581 123.619 378.584 122.818 378.584 122.303C378.396 121.684 378.039 121.129 377.554 120.7 376.71 119.843 375.552 119.367 374.349 119.384 373.149 119.386 371.998 119.859 371.144 120.7 370.286 121.544 369.81 122.702 369.828 123.905 369.824 125.106 370.297 126.259 371.144 127.11 372.118 127.992 373.269 128.656 374.521 129.056 375.516 129.423 376.416 130.01 377.153 130.773 377.913 131.481 378.33 132.483 378.298 133.52 378.33 135.669 376.613 137.437 374.464 137.469 374.426 137.47 374.387 137.47 374.349 137.469 373.31 137.509 372.306 137.09 371.602 136.325 370.969 135.715 370.565 134.907 370.457 134.035L370.457 133.291 368.34 134.035 368.34 134.55C368.524 135.818 369.129 136.987 370.057 137.87 371.172 139.041 372.732 139.686 374.349 139.644 375.986 139.702 377.569 139.056 378.698 137.87 381.077 135.48 381.077 131.617 378.698 129.228 377.593 128.136 376.237 127.331 374.749 126.881Z" fill="#1D426C" transform="matrix(1 0 0 1.0025 216.774 460)"/><path d="M381.274 121.788 386.024 121.788 386.024 139.415 388.199 139.415 388.199 121.788 392.949 121.788 392.949 119.613 381.274 119.613 381.274 121.788Z" fill="#1D426C" transform="matrix(1 0 0 1.0025 216.774 460)"/><path d="M404.052 131.002C405.328 129.755 406.032 128.036 405.998 126.252 406.03 124.485 405.325 122.784 404.052 121.559 402.971 120.449 401.531 119.758 399.988 119.613L394.265 119.613 394.265 139.415 396.44 139.415 396.44 132.948 399.073 132.948 403.193 139.415 406.341 139.415 401.877 132.547C402.694 132.177 403.433 131.652 404.052 131.002ZM396.726 121.788 399.359 121.788C401.84 122.068 403.624 124.307 403.344 126.788 403.107 128.883 401.454 130.536 399.359 130.773L396.726 130.773Z" fill="#1D426C" transform="matrix(1 0 0 1.0025 216.774 460)"/><path d="M419.161 132.948C419.161 135.413 417.162 137.412 414.697 137.412 412.231 137.412 410.233 135.413 410.233 132.948L410.233 119.613 408.001 119.613 408.001 132.948C408.015 136.646 411.025 139.632 414.723 139.618 416.497 139.611 418.196 138.899 419.447 137.641 420.505 136.547 421.187 135.143 421.393 133.635L421.393 119.613 419.161 119.613Z" fill="#1D426C" transform="matrix(1 0 0 1.0025 216.774 460)"/><path d="M433.64 121.616C435.589 121.574 437.478 122.293 438.906 123.619L439.306 123.619 440.966 122.188 440.68 122.017C438.844 120.278 436.397 119.332 433.869 119.384 428.275 119.384 423.739 123.92 423.739 129.514 423.739 135.108 428.275 139.644 433.869 139.644 436.397 139.696 438.844 138.75 440.68 137.011L441.195 136.611 439.535 135.123 439.134 135.466C435.599 138.075 430.618 137.323 428.01 133.788 425.848 130.858 425.952 126.835 428.261 124.02 429.662 122.534 431.598 121.669 433.64 121.616Z" fill="#1D426C" transform="matrix(1 0 0 1.0025 216.774 460)"/><path d="M441.595 121.788 446.288 121.788 446.288 139.415 448.52 139.415 448.52 121.788 453.213 121.788 453.213 119.613 441.595 119.613 441.595 121.788Z" fill="#1D426C" transform="matrix(1 0 0 1.0025 216.774 460)"/><path d="M454.93 119.613 457.105 119.613 457.105 139.472 454.93 139.472Z" fill="#1D426C" transform="matrix(1 0 0 1.0025 216.774 460)"/><path d="M469.295 119.327C463.669 119.327 459.108 123.888 459.108 129.514 459.108 135.14 463.669 139.701 469.295 139.701 474.922 139.701 479.482 135.14 479.482 129.514 479.482 123.888 474.922 119.327 469.295 119.327ZM469.295 137.355C467.142 137.418 465.062 136.565 463.572 135.008 462.003 133.527 461.148 131.442 461.226 129.285 461.38 124.95 464.957 121.525 469.295 121.559 473.657 122.085 476.767 126.048 476.241 130.409 475.802 134.048 472.934 136.916 469.295 137.355Z" fill="#1D426C" transform="matrix(1 0 0 1.0025 216.774 460)"/><path d="M495.278 119.613 495.278 135.809 483.889 119.842 483.717 119.613 481.485 119.613 481.485 139.415 483.717 139.415 483.717 123.676 494.992 139.415 497.453 139.415 497.453 119.613 495.278 119.613Z" fill="#1D426C" transform="matrix(1 0 0 1.0025 216.774 460)"/></g></svg>